<svg xmlns="http://www.w3.org/2000/svg" viewBox="0 0 1417.32 1417.32"><defs><style>.cls-1{fill:#2d4d9c;}.cls-2{fill:#afdff9;}.cls-3{fill:#94bbd1;}.cls-4{fill:#7d9eb0;}.cls-5{fill:#607b88;}</style></defs><g id="Слой_4" data-name="Слой 4"><path class="cls-1" d="M269.39,510.32s7.42,118.83,79.23,104.83c59.18-11.54,19.64,78.71,59.2,133.54,8.44,11.69-20.57-35.79,77.7-8.35,92.2,25.75,35.64,52.83,74.55,56,91.1,7.36,204.6-10.22,295.47-14.07,67.37-2.85,86.22-23,86.22-23s25.48,1.94,44.6-20.06c8.68-10,40.26-2.91,46.65-18.66,7-17.2,10.16-33.17,10.57-45.42.48-14.34,2.24-17.52-2.36-21.21-4-3.26-20.92-2.43-20.92-2.43l-599.55-2.2s-7.82.08-10.94-1.66C407,646,404,640.33,404,640.33l-16.27-31.66s-4.65-9-4.23-12.24,4.82-6.79,6.32-8.19c10.46-9.79,47.62-46.65,60.75-109.58C464,414.17,480.12,350.78,454,369.58c-18.19,13.09-50,44-69.21,81.52-25.05,48.83-34.14,106.53-34.14,106.53S292.43,506.3,269.39,510.32Z"/></g><g id="Слой_2" data-name="Слой 2"><g id="Слой_5" data-name="Слой 5"><path class="cls-2" d="M209.71,817.51a395.84,395.84,0,0,1,111-86.18A314.63,314.63,0,0,1,390.66,705c25-5.88,51.91-8.85,79.47-6.54a236.06,236.06,0,0,1,41.31,6.86c1.72.39,3.41.9,5.1,1.41l5.08,1.53c1.69.53,3.4,1,5.07,1.59l5,1.79a208.17,208.17,0,0,1,20.08,8.23l5.11,2.57,2.56,1.3c.85.42,1.7.86,2.57,1.38l5.16,3c1.72,1,3.44,2,5.14,3.14,3.39,2.26,6.86,4.47,10,7l4.84,3.72,4.51,3.78,2.24,1.91,2,1.83,4,3.65,3.52,3.3,3.22,3,2.93,2.79,2.51,2.31c.41.37.87.82,1.23,1.12l1.09.92,2.16,1.84,2,1.52,1,.77c.32.24.65.44,1,.67,1.3.88,2.5,1.85,3.89,2.65l2,1.29c.68.42,1.47.81,2.18,1.23l2.19,1.26c.71.43,1.61.81,2.41,1.23l2.44,1.23,1.22.63,1.27.59c1.7.79,3.39,1.64,5.06,2.28l2.5,1.06,2.48.91c1.65.66,3.28,1.13,4.9,1.66a87.3,87.3,0,0,0,19,4c.78.13,1.58.14,2.37.21s1.57.17,2.37.19c1.61,0,3.2.17,4.85.11,3.24.06,6.63-.24,10.09-.51a143.36,143.36,0,0,0,22.52-4c4-.94,8.22-2.18,12.47-3.45s8.64-2.82,13.18-4.39,9.14-3.28,13.82-5l14.4-5.63C778,765,788,760.82,798.54,756.7c5.25-2.08,10.54-4.18,16-6.27s10.91-4.09,16.47-6.11c11.12-4.08,22.64-7.82,34.42-11.34,23.6-6.88,48.49-12.35,74-14.82a332.42,332.42,0,0,1,38.4-1.62,316.93,316.93,0,0,1,38.18,3l4.7.66,4.69.79c3.12.56,6.23,1.1,9.31,1.77,6.18,1.24,12.28,2.7,18.32,4.31l9,2.54c3,.92,5.94,1.89,8.89,2.86,1.47.49,3,.94,4.41,1.48l4.38,1.6c2.91,1.09,5.83,2.08,8.69,3.33l8.56,3.58q4.21,1.9,8.38,3.88c1.4.64,2.78,1.32,4.14,2l4.08,2.08c1.35.71,2.73,1.37,4,2.11l4,2.24a338.87,338.87,0,0,1,30.14,19c9.56,6.65,18.59,13.69,27.56,20.64s17.79,14,26.73,21.33l-2.62,6.49c-10.42-4-20.7-8.38-30.9-12.81s-20.3-9-30.47-13.24c-20.33-8.55-41-15.83-62.35-20.57-1.33-.32-2.66-.62-4-.87l-4-.82-4-.82c-1.34-.28-2.69-.46-4-.7l-8.07-1.35-8.12-1.09a315.05,315.05,0,0,0-32.61-2.29,307.21,307.21,0,0,0-65,5.8c-10.69,2.09-21.29,4.71-31.77,7.78s-20.87,6.49-31.15,10.29c-20.58,7.57-40.72,16.53-60.89,25.71S785.59,836,764.54,844.06c-5.25,2.05-10.58,3.93-15.94,5.76s-10.81,3.48-16.33,4.93a209.18,209.18,0,0,1-33.81,6.35,161.84,161.84,0,0,1-17.35.73c-2.9,0-5.8-.18-8.7-.31-1.45-.08-2.9-.25-4.34-.37s-2.9-.24-4.34-.46a155.75,155.75,0,0,1-33.79-8.11,182.59,182.59,0,0,1-31.2-14.79A153.64,153.64,0,0,1,570.93,817c-4.15-4-8.15-8.12-11.91-12.15l-5.68-6c-1.91-1.86-3.76-3.84-5.73-5.59A121.56,121.56,0,0,0,522,774.94a202.39,202.39,0,0,0-29.47-12.78l-7.67-2.46c-2.58-.75-5.19-1.39-7.78-2.1s-5.24-1.2-7.87-1.79l-4-.84-4-.65-4-.65-2-.32-2-.22c-2.68-.3-5.36-.63-8.05-.9l-8.08-.55c-2.69-.18-5.4-.16-8.11-.25a261.55,261.55,0,0,0-32.47,1.62,333.38,333.38,0,0,0-63.81,14.31,478.71,478.71,0,0,0-61.12,24.56c-9.94,4.76-19.73,9.84-29.42,15.11s-19.29,10.74-28.77,16.42Z"/><path class="cls-3" d="M1105.27,900.55c-5-.06-9.84-.36-14.63-.75s-9.57-.72-14.29-1.14-9.4-.86-14-1.32-9.24-1-13.83-1.38c-18.31-1.84-36.15-3.74-53.62-5.06-8.73-.65-17.35-1.2-25.88-1.56s-17-.5-25.26-.43c-2.07.07-4.14.08-6.2.12s-4.11.2-6.17.22-4.08.2-6.12.25l-3.05.11c-1,.07-2,.1-3,.15-8.1.36-16.11.79-24.16,1.33s-16.12,1.29-24.29,2.4a170.73,170.73,0,0,0-24.58,5.09l-3,.93-.77.24-.81.28-1.64.56c-2.18.73-4.36,1.53-6.53,2.33q-6.51,2.42-13,5.17c-8.61,3.65-17.15,7.71-25.62,12s-17,8.8-25.57,13.21-17.45,8.6-26.46,12.57-18.25,7.59-27.74,10.93a184,184,0,0,1-30.46,8,145.3,145.3,0,0,1-32.85,1.82,151.22,151.22,0,0,1-16.5-1.92c-5.41-1-10.78-2.15-16-3.63a203.78,203.78,0,0,1-29.47-10.89c-9.2-4.2-17.9-8.63-26.33-12.88-16.83-8.56-32.6-16.39-47.93-22.91A415.83,415.83,0,0,0,470,897.83a358.13,358.13,0,0,0-47.51-10.74,430,430,0,0,0-50.78-4.7c-17.44-.7-35.33-.49-53.66.12s-37,1.89-56.54,2.44l-2.41-6.57c3.88-3,7.82-6,11.88-8.73s8.16-5.44,12.36-8a288.55,288.55,0,0,1,25.94-14,298,298,0,0,1,56.17-20.22,278,278,0,0,1,60.8-8.31A247.15,247.15,0,0,1,489,825.53a225.66,225.66,0,0,1,30.48,9.54A249.76,249.76,0,0,1,548,848.47c18.12,9.92,34.28,21.4,49.4,32,7.57,5.3,14.89,10.38,22.06,15.07s14,9.19,20.9,13.27c3.44,2,6.84,4,10.33,5.79s7,3.5,10.55,5a108.65,108.65,0,0,0,22.7,7,102.47,102.47,0,0,0,25,1.51,133.29,133.29,0,0,0,26-4.25,139.3,139.3,0,0,0,24.9-9.38,167.67,167.67,0,0,0,23.33-13.82c7.52-5.24,14.76-11.09,22-17.24,3.62-3.06,7.22-6.22,10.86-9.4l5.49-4.81,1.38-1.2.69-.6.75-.62,3-2.49C843.56,851.08,862.6,840,883,833.6a156.34,156.34,0,0,1,31.14-6.46,192.56,192.56,0,0,1,31.28-.54,270.68,270.68,0,0,1,30.46,3.7c5,1,9.94,1.92,14.81,3.19,2.43.62,4.89,1.14,7.29,1.86l7.22,2.06a291.3,291.3,0,0,1,54.55,22.87c2.16,1.14,4.28,2.36,6.4,3.61s4.21,2.48,6.31,3.74c4.17,2.57,8.25,5.28,12.3,8,2,1.38,4,2.88,6,4.31s3.93,2.94,5.88,4.44c3.85,3.09,7.64,6.25,11.29,9.67Z"/><path class="cls-4" d="M377.65,1044.11a140.93,140.93,0,0,1,12.9-19c2.31-3,4.82-5.79,7.32-8.62s5.13-5.51,7.8-8.15a199.53,199.53,0,0,1,35.77-28c1.61-1,3.33-1.94,5-2.92s3.35-1.93,5.07-2.82c3.49-1.76,6.91-3.59,10.55-5.15,1.79-.81,3.61-1.58,5.42-2.36s3.7-1.47,5.57-2.16l2.8-1,2.87-1c1.91-.65,3.83-1.24,5.76-1.84,3.93-1.1,7.84-2.17,11.91-3a113.09,113.09,0,0,1,12.3-2,108.23,108.23,0,0,1,25.55.24,105.52,105.52,0,0,1,25.28,6.55,116.57,116.57,0,0,1,22.87,12.31c3.53,2.41,6.86,5,10.09,7.64,1.57,1.37,3.15,2.7,4.67,4.08s3.09,2.77,4.31,4.07c5.26,5.25,10.48,10.31,15.81,15a142.55,142.55,0,0,0,16.39,12.61,77.4,77.4,0,0,0,17.34,8.52,56.45,56.45,0,0,0,18.19,2.83,70.15,70.15,0,0,0,9.33-.66c1.55-.21,3.13-.48,4.68-.77s3.09-.65,4.61-1a91.24,91.24,0,0,0,17-6.24c5.28-2.54,10.23-5.36,15.25-8.4l15.66-9.58c5.52-3.27,11.31-6.78,17.36-10.45,12.11-7.32,25.26-15.14,39.38-21.47a220.12,220.12,0,0,1,21.7-8.47c3.71-1.19,7.43-2.31,11.2-3.28l2.82-.73c.44-.13,1-.25,1.52-.38l1.59-.37c2.12-.52,4.28-.92,6.43-1.34a153,153,0,0,1,51.83-.47,167.18,167.18,0,0,1,47.05,15,174.3,174.3,0,0,1,20.55,11.85,185.4,185.4,0,0,1,34.75,30.1c2.55,2.83,5,5.73,7.32,8.74s4.57,6.09,6.68,9.3l-3.89,5.82c-14.9-2.64-28.67-5.91-42.2-8.26-6.73-1.26-13.34-2.32-19.82-3.23s-12.84-1.64-19.05-2.13a212.61,212.61,0,0,0-35.41-.06,168.52,168.52,0,0,0-31.66,6l-34.8,10.69c-12,3.69-24.3,7.7-37.45,12.47-6.58,2.35-13.41,4.91-20.7,7.33a159.77,159.77,0,0,1-23.4,5.81c-2.09.32-4.17.62-6.27.87s-4.22.47-6.38.55-4.27.24-6.43.24h-3.21l-3.22-.12a137.72,137.72,0,0,1-24.88-3.42c-2-.46-3.93-1-5.88-1.44s-3.86-1-5.79-1.59c-3.84-1.06-7.67-2.3-11.46-3.61s-7.53-2.78-11.2-4.34-7.24-3.29-10.7-5.1c-6.93-3.62-13.39-7.54-19.6-11.4s-12.33-7.43-18.6-10.61a150.82,150.82,0,0,0-19.3-8.07c-1.71-.6-3.14-1-4.64-1.4s-3-.7-4.5-1-3-.54-4.49-.73-3-.39-4.47-.46a105.7,105.7,0,0,0-17.29.22c-5.59.48-11,1.21-16.42,2l-16.36,2.38c-2.79.46-5.58.77-8.44,1.23s-5.72,1-8.63,1.42c-11.62,2.23-23.72,5-36.21,8.33l-38.85,10.5-10.2,2.67c-3.43.89-6.94,1.7-10.45,2.58s-7.12,1.62-10.76,2.4-7.32,1.53-11.21,2Z"/><path class="cls-5" d="M554.64,1075.76a204.38,204.38,0,0,1,22.46,4.42l20.72,5c6.7,1.65,13.23,3.23,19.64,4.7s12.68,2.83,18.84,4.1c12.37,2.46,24.3,4.5,36.06,5.93s23.32,2.35,34.94,2.69,23.14.1,35-.66,24-2.1,36.51-3.87,25.53-3.94,39.15-6.37q10.21-1.8,21-3.62a217.25,217.25,0,0,1,22.66-2.91l2.07,3.42c-11.54,7.71-23.36,15.41-35.67,22.22a291.07,291.07,0,0,1-38.46,17.61,216.74,216.74,0,0,1-165.93-4.71,278.08,278.08,0,0,1-37.25-20.08c-11.84-7.62-23.06-16.2-34-24.62Z"/></g></g></svg>